<svg id="Capa_1" enable-background="new 0 0 512 512" height="512" viewBox="0 0 512 512" width="512" xmlns="http://www.w3.org/2000/svg"><g><path d="m437.02 74.98c-48.353-48.351-112.64-74.98-181.02-74.98s-132.667 26.629-181.02 74.98c-48.351 48.353-74.98 112.64-74.98 181.02s26.629 132.667 74.98 181.02c48.353 48.351 112.64 74.98 181.02 74.98s132.667-26.629 181.02-74.98c48.351-48.353 74.98-112.64 74.98-181.02s-26.629-132.667-74.98-181.02zm-181.02 407.02c-124.617 0-226-101.383-226-226s101.383-226 226-226 226 101.383 226 226-101.383 226-226 226z"/><path d="m256 171c-46.869 0-85 38.131-85 85s38.131 85 85 85 85-38.131 85-85-38.131-85-85-85zm0 140c-30.327 0-55-24.673-55-55s24.673-55 55-55 55 24.673 55 55-24.673 55-55 55z"/><path d="m438.941 211.292-37.023-7.405c-1.732-4.883-3.69-9.644-5.863-14.253l20.918-31.379c3.967-5.949 3.182-13.871-1.874-18.927l-42.426-42.426c-5.056-5.056-12.976-5.842-18.927-1.875l-31.378 20.918c-4.61-2.173-9.371-4.131-14.255-5.863l-7.404-37.024c-1.402-7.011-7.559-12.058-14.709-12.058h-60c-7.15 0-13.307 5.047-14.709 12.058l-7.404 37.024c-4.884 1.732-9.645 3.69-14.255 5.863l-31.378-20.918c-5.948-3.965-13.871-3.182-18.927 1.875l-42.426 42.426c-5.056 5.056-5.841 12.978-1.874 18.927l20.918 31.379c-2.173 4.61-4.131 9.371-5.863 14.253l-37.023 7.405c-7.012 1.401-12.059 7.558-12.059 14.708v60c0 7.15 5.047 13.307 12.059 14.708l37.023 7.405c1.732 4.883 3.69 9.644 5.863 14.253l-20.918 31.378c-3.967 5.949-3.182 13.871 1.874 18.927l42.426 42.427c5.054 5.056 12.976 5.842 18.927 1.875l31.378-20.918c4.61 2.173 9.371 4.131 14.255 5.863l7.404 37.024c1.402 7.011 7.559 12.058 14.709 12.058h60c7.15 0 13.307-5.047 14.709-12.058l7.404-37.024c4.884-1.732 9.645-3.69 14.255-5.863l31.378 20.918c5.949 3.966 13.872 3.182 18.927-1.875l42.426-42.427c5.056-5.056 5.841-12.978 1.874-18.927l-20.918-31.378c2.173-4.61 4.131-9.371 5.863-14.253l37.023-7.405c7.012-1.401 12.059-7.558 12.059-14.708v-60c0-7.15-5.047-13.307-12.059-14.708zm-17.941 62.411-33.592 6.719c-5.482 1.096-9.899 5.15-11.462 10.519-2.599 8.935-6.092 17.418-10.382 25.214-2.697 4.901-2.442 10.896.661 15.552l18.965 28.448-25.035 25.036-28.449-18.966c-4.657-3.104-10.652-3.358-15.554-.66-7.794 4.29-16.276 7.783-25.212 10.381-5.368 1.562-9.423 5.979-10.52 11.461l-6.717 33.593h-35.406l-6.718-33.592c-1.097-5.482-5.151-9.9-10.52-11.461-8.936-2.599-17.418-6.092-25.212-10.381-4.902-2.7-10.899-2.444-15.554.66l-28.449 18.966-25.035-25.036 18.965-28.448c3.104-4.655 3.358-10.65.661-15.552-4.29-7.796-7.783-16.279-10.382-25.214-1.562-5.368-5.979-9.422-11.462-10.519l-33.591-6.72v-35.406l33.592-6.719c5.482-1.096 9.899-5.15 11.462-10.519 2.599-8.935 6.092-17.418 10.382-25.214 2.697-4.901 2.442-10.896-.661-15.552l-18.965-28.449 25.035-25.036 28.449 18.966c4.656 3.103 10.651 3.357 15.554.66 7.794-4.29 16.276-7.783 25.212-10.381 5.368-1.562 9.423-5.979 10.52-11.461l6.717-33.592h35.406l6.718 33.592c1.097 5.482 5.151 9.9 10.52 11.461 8.936 2.599 17.418 6.092 25.212 10.381 4.901 2.698 10.898 2.443 15.554-.66l28.449-18.966 25.035 25.036-18.965 28.449c-3.104 4.655-3.358 10.65-.661 15.552 4.29 7.796 7.783 16.279 10.382 25.214 1.562 5.368 5.979 9.422 11.462 10.519l33.591 6.719z"/></g></svg>